# xmcd
#
# Track frame offsets:
#	150
#	22209
#	41408
#	62754
#	82805
#	101117
#	115969
#	132987
#	145534
#	182126
#	194981
#	209545
#	231142
#	251584
#	262101
#
# Disc length: 3654 seconds
#
# Revision: 1
# Processed by: cddbd v1.5PL3 Copyright (c) Steve Scherf et al.
# Submitted via: EasyCDDAExtractor 5.0.6
#
DISCID=e30e440f
DTITLE=Sax - For Sex
DYEAR=2001
DGENRE=
TTITLE0=Fox Charles-Killing Me Softly
TTITLE1=Paul Barry Mark Taylor-Dove I am more
TTITLE2=Musiccautor-The Greatest Love OF All
TTITLE3=Hornet James-My Heart Will Go On
TTITLE4=Musicautor-When I Need You
TTITLE5=Miller Stevenson Harris-Release Me
TTITLE6=Al Weber-Memory
TTITLE7=E.Presley Love Me Tender
TTITLE8=Glenn Miller-Moonlight Serenade
TTITLE9=S.Beshet-Petite Fleure
TTITLE10=Glenn Miller-Sentemental Journey
TTITLE11=Webb-Wonderland ByNight
TTITLE12=Earle Hagen-Harlem Nocturne
TTITLE13=V.Young-Around The World
TTITLE14=A.C.Jobim-Now Insensitive
EXTD=
EXTT0=
EXTT1=
EXTT2=
EXTT3=
EXTT4=
EXTT5=
EXTT6=
EXTT7=
EXTT8=
EXTT9=
EXTT10=
EXTT11=
EXTT12=
EXTT13=
EXTT14=
PLAYORDER=
